<svg width="1280" height="420" viewBox="0 0 1280 420" fill="none" xmlns="http://www.w3.org/2000/svg">
  <defs>
    <linearGradient id="bg" x1="0" y1="0" x2="1280" y2="420" gradientUnits="userSpaceOnUse">
      <stop stop-color="#fff8f2"/>
      <stop offset="0.58" stop-color="#fffdf8"/>
      <stop offset="1" stop-color="#ecf7ec"/>
    </linearGradient>
    <linearGradient id="hot" x1="0" y1="0" x2="1" y2="1">
      <stop stop-color="#ff6a00"/>
      <stop offset="1" stop-color="#c4310a"/>
    </linearGradient>
    <filter id="shadow" x="-20%" y="-20%" width="140%" height="140%">
      <feDropShadow dx="0" dy="18" stdDeviation="18" flood-color="#2a170f" flood-opacity="0.18"/>
    </filter>
    <pattern id="grid" width="36" height="36" patternUnits="userSpaceOnUse">
      <path d="M36 0H0V36" stroke="#2b1a13" stroke-opacity="0.06" stroke-width="1"/>
    </pattern>
  </defs>

  <rect width="1280" height="420" rx="0" fill="url(#bg)"/>
  <rect width="1280" height="420" fill="url(#grid)"/>

  <path d="M885 0C868 92 892 150 957 176C1027 204 1096 180 1173 217C1236 247 1264 319 1280 420H812C755 334 748 247 790 160C818 102 852 51 885 0Z" fill="#f8efe2"/>
  <path d="M0 330C143 286 252 295 368 333C491 373 606 376 736 329C852 287 971 275 1280 326V420H0V330Z" fill="#fff2e5"/>
  <path d="M0 356C151 313 254 320 370 352C497 387 614 391 741 351C858 314 974 302 1280 350" stroke="#2b1a13" stroke-opacity="0.08" stroke-width="2"/>

  <g transform="translate(84 76)">
    <rect x="0" y="0" width="688" height="268" rx="0" fill="#fffdf9" stroke="#2b1a13" stroke-width="4" filter="url(#shadow)"/>
    <rect x="0" y="0" width="688" height="38" fill="#2b1a13"/>
    <rect x="17" y="13" width="12" height="12" fill="#ff6a00"/>
    <rect x="40" y="13" width="12" height="12" fill="#fff8f2"/>
    <rect x="63" y="13" width="12" height="12" fill="#d9ead3"/>
    <text x="604" y="24" font-family="monospace" font-size="14" font-weight="700" fill="#fff8f2">SYSTEM 7.5.3</text>

    <g transform="translate(52 80)">
      <rect x="0" y="0" width="82" height="82" fill="#2b1a13"/>
      <path d="M20 52C28 24 54 18 64 35C75 55 48 71 20 52Z" fill="url(#hot)"/>
      <path d="M30 30C43 18 59 19 67 33" stroke="#fff8f2" stroke-width="7" stroke-linecap="square"/>
      <rect x="19" y="60" width="46" height="8" fill="#fff8f2"/>
    </g>

    <text x="164" y="126" font-family="Inter, Arial, sans-serif" font-size="66" font-weight="900" letter-spacing="0" fill="#080b18">CARIMAKAN</text>
    <text x="170" y="165" font-family="monospace" font-size="22" font-weight="700" fill="#b33a0d">RETRO FOOD ORDERING SYSTEM</text>
    <text x="170" y="202" font-family="Inter, Arial, sans-serif" font-size="20" fill="#4d5d75">Menu, cart, checkout, order history, admin panel, and Prisma powered API.</text>
  </g>

  <g transform="translate(818 78)" filter="url(#shadow)">
    <rect x="0" y="0" width="346" height="268" rx="0" fill="#fffdf9" stroke="#2b1a13" stroke-width="4"/>
    <rect x="0" y="0" width="346" height="34" fill="#2b1a13"/>
    <text x="18" y="23" font-family="monospace" font-size="14" font-weight="700" fill="#fff8f2">MENU.FILE</text>
    <rect x="26" y="62" width="112" height="92" rx="10" fill="#fff1e4" stroke="#f1d8bf"/>
    <circle cx="82" cy="108" r="38" fill="#fffdf9"/>
    <path d="M55 119C66 88 97 87 109 108C120 127 83 143 55 119Z" fill="url(#hot)"/>
    <circle cx="99" cy="90" r="12" fill="#89b86f"/>
    <circle cx="55" cy="91" r="12" fill="#e9442e"/>
    <text x="160" y="80" font-family="monospace" font-size="14" font-weight="700" fill="#b33a0d">POPULAR</text>
    <text x="160" y="112" font-family="Inter, Arial, sans-serif" font-size="26" font-weight="900" fill="#080b18">Ayam Geprek</text>
    <text x="160" y="146" font-family="monospace" font-size="22" font-weight="900" fill="#ff4a00">Rp 18.000</text>
    <rect x="160" y="178" width="140" height="42" fill="#2b1a13"/>
    <text x="186" y="205" font-family="monospace" font-size="15" font-weight="900" fill="#fff8f2">ADD TO CART</text>
  </g>
</svg>
